{"title":"Australian Survivor - S03E16","uid":15897931,"size":1248729492,"categoryP":"video","categoryS":"tv_shows","magnet":"?xt=urn:btih:31765ddd94dcdb16eac0294d28a5a9545e39eb75&amp;dn=Australian+Survivor+-+S03E16&amp;tr=udp%3A%2F%2Ftracker.leechers-paradise.org%3A6969&amp;tr=udp%3A%2F%2Fzer0day.ch%3A1337&amp;tr=udp%3A%2F%2Fopen.demonii.com%3A1337&amp;tr=udp%3A%2F%2Ftracker.coppersurfer.tk%3A6969&amp;tr=udp%3A%2F%2Fexodus.desync.com%3A6969","seeders":10,"leechers":5,"uploader":"Bullrout","files":1,"time":1474978369,"description":"Australian Survivor - S03E16\r\n\r\nAfter the final tribe merger the castaways jostle for position to control the game. With power held by a select few one contestant sets upon a plan to change the game but is it too little too late?\r\n\r\nComplete name : Australian Survivor - S03E16.mkv\r\nFormat : Matroska\r\nFormat version : Version 4 / Version 2\r\nFile size : 1.16 GiB\r\nDuration : 50 min 30 s\r\nOverall bit rate mode : Variable\r\nOverall bit rate : 3 296 kb/s\r\nEncoded date : UTC 2016-09-26 12:39:25\r\nWriting application : mkvmerge v9.4.2 ('So High') 64bit\r\nWriting library : libebml v1.3.4 + libmatroska v1.4.5\r\n\r\nVideo\r\nID : 2\r\nFormat : AVC\r\nFormat/Info : Advanced Video Codec\r\nFormat profile :   \r\nFormat settings, CABAC : Yes\r\nFormat settings, ReFrames : 3 frames\r\nCodec ID : V_MPEG4/ISO/AVC\r\nDuration : 50 min 30 s\r\nBit rate mode : Variable\r\nBit rate : 2 910 kb/s\r\nMaximum bit rate : 3 000 kb/s\r\nWidth : 1 280 pixels\r\nHeight : 720 pixels\r\nDisplay aspect ratio : 16:9\r\nFrame rate mode : Constant\r\nFrame rate : 25.000 FPS\r\nStandard : PAL\r\nColor space : YUV\r\nChroma subsampling : 4:2:0\r\nBit depth : 8 bits\r\nScan type : Progressive\r\nBits/(Pixel*Frame) : 0.126\r\nStream size : 1.03 GiB (88%)\r\nWriting library : x264 core 112\r\nDefault : Yes\r\nForced : No\r\nColor range : Limited\r\nColor primaries : BT.709\r\nTransfer characteristics : BT.709\r\nMatrix coefficients : BT.709\r\n\r\nAudio\r\nID : 1\r\nFormat : AC-3\r\nFormat/Info : Audio Coding 3\r\nMode extension : CM (complete main)\r\nFormat settings, Endianness : Big\r\nCodec ID : A_AC3\r\nDuration : 50 min 30 s\r\nBit rate mode : Constant\r\nBit rate : 384 kb/s\r\nChannel(s) : 6 channels\r\nChannel positions : Front: L C R, Side: L R, LFE\r\nSampling rate : 48.0 kHz\r\nFrame rate : 31.250 FPS (1536 spf)\r\nCompression mode : Lossy\r\nStream size : 139 MiB (12%)\r\nDefault : Yes\r\nForced : No","torrent":{"xt":"urn:btih:31765ddd94dcdb16eac0294d28a5a9545e39eb75","amp;dn":"Australian+Survivor+-+S03E16","amp;tr":["udp%3A%2F%2Ftracker.leechers-paradise.org%3A6969","udp%3A%2F%2Fzer0day.ch%3A1337","udp%3A%2F%2Fopen.demonii.com%3A1337","udp%3A%2F%2Ftracker.coppersurfer.tk%3A6969","udp%3A%2F%2Fexodus.desync.com%3A6969"],"infoHash":"31765ddd94dcdb16eac0294d28a5a9545e39eb75","infoHashBuffer":{"type":"Buffer","data":[49,118,93,221,148,220,219,22,234,192,41,77,40,165,169,84,94,57,235,117]},"announce":[],"urlList":[]}}